# xmcd
#
# Track frame offsets:
#	150
#	13851
#	28572
#	43859
#	57669
#	69726
#	84643
#	97623
#	111583
#	125759
#	139093
#	151238
#	167368
#	180264
#	195229
#	208804
#	220967
#	235211
#	251167
#	265985
#	277903
#	291092
#	303617
#	314336
#	327023
#
# Disc length: 4551 seconds
# Revision: 0
# Processed by: cddbd v1.5.2PL0 Copyright (c) Steve Scherf et al.
# Submitted via: dBpowerAMP V12.0
#
DISCID=6f11c519
DTITLE=藤山一郎 - 国民的歌手 藤山一郎全集 ～テイチク・ビクター編～ [Disc3: ビクター編]
DYEAR=1933
DGENRE=歌謡曲
TTITLE0=僕の青春(はる)
TTITLE1=浅草の唄
TTITLE2=故小妹
TTITLE3=僕の銀座 (w/四家文子)
TTITLE4=いとしの今宵 (Isn't This A Night For Love?)
TTITLE5=皇太子殿下御生誕奉祝歌 (w/徳山璉)
TTITLE6=別れ煙草 (w/小林千代子)
TTITLE7=チェリオ! (w/小林千代子)
TTITLE8=公園で (Pettin' In The Park) (w/ヘレン隅田)
TTITLE9=おヽどんな・くらら (Oh, Donna Clara!) (w/ヘレン隅田)
TTITLE10=古戦場の秋
TTITLE11=蒼い月 (Pale Moon)
TTITLE12=ミッキィ・マウスの結婚 (w/平井英子)
TTITLE13=知らぬ他国で
TTITLE14=僕の失恋
TTITLE15=誰ゆえに? (Who?) (w/小林千代子)
TTITLE16=恋の花束 (I Kiss Your Hand, Madame)
TTITLE17=メリー・ウィドウ・ワルツ (Merry Widow Waltz)
TTITLE18=憧れの乙女 (Villa Lied) (w/小林千代子)
TTITLE19=希望の船路 (Song Of The Vagabond)
TTITLE20=谷間の小屋 (Just A Cottage Small By A Waterfall)
TTITLE21=永遠の誓い (Danny Boy)
TTITLE22=恋の進軍 (w/能勢妙子)
TTITLE23=夜風 (Confession)
TTITLE24=涙のセレナーデ
EXTD=
EXTT0=
EXTT1=
EXTT2=
EXTT3=
EXTT4=
EXTT5=
EXTT6=
EXTT7=
EXTT8=
EXTT9=
EXTT10=
EXTT11=
EXTT12=
EXTT13=
EXTT14=
EXTT15=
EXTT16=
EXTT17=
EXTT18=
EXTT19=
EXTT20=
EXTT21=
EXTT22=
EXTT23=
EXTT24=
PLAYORDER=
